<!--Спрайт SVG-->

<svg xmlns="http://www.w3.org/2000/svg" xmlns:xlink="http://www.w3.org/1999/xlink">
	<symbol id="facebook" viewBox="0 0 8 16">
		<path d="M7.797,5.551 C7.797,5.551 5.014,5.551 5.014,5.551 C5.014,5.551 5.014,3.519 5.014,3.519 C5.014,2.896 5.658,2.752 5.959,2.752 C6.258,2.752 7.757,2.752 7.757,2.752 C7.757,2.752 7.757,0.010 7.757,0.010 C7.757,0.010 5.696,0.000 5.696,0.000 C2.885,0.000 2.243,2.044 2.243,3.354 C2.243,3.354 2.243,5.551 2.243,5.551 C2.243,5.551 0.203,5.551 0.203,5.551 C0.203,5.551 0.203,8.375 0.203,8.375 C0.203,8.375 2.243,8.375 2.243,8.375 C2.243,12.001 2.243,16.000 2.243,16.000 C2.243,16.000 5.014,16.000 5.014,16.000 C5.014,16.000 5.014,11.960 5.014,8.375 C5.014,8.375 7.367,8.375 7.367,8.375 C7.367,8.375 7.797,5.551 7.797,5.551 Z"/>
	</symbol>
	<symbol id="google" viewBox="0 0 16 16">
		<path d="M14.047,3.025 C14.047,3.025 14.047,4.997 14.047,4.997 C14.047,4.997 13.029,4.997 13.029,4.997 C13.029,4.997 13.029,3.025 13.029,3.025 C13.029,3.025 11.037,3.025 11.037,3.025 C11.037,3.025 11.037,2.002 11.037,2.002 C11.037,2.002 13.029,2.002 13.029,2.002 C13.029,2.002 13.029,0.033 13.029,0.033 C13.029,0.033 14.047,0.033 14.047,0.033 C14.047,0.033 14.047,2.002 14.047,2.002 C14.047,2.002 16.006,2.002 16.006,2.002 C16.006,2.002 16.006,3.025 16.006,3.025 C16.006,3.025 14.047,3.025 14.047,3.025 ZM7.810,0.652 C7.810,0.652 9.227,1.528 9.227,3.241 C9.227,4.953 8.398,5.700 7.354,6.622 C6.309,7.543 6.918,8.092 8.551,9.255 C10.184,10.417 10.641,12.989 8.529,14.855 C6.418,16.720 -0.006,16.470 -0.006,13.009 C-0.006,9.547 4.828,9.495 5.221,9.495 C5.611,9.495 5.678,9.385 5.352,9.034 C5.023,8.685 4.500,8.005 5.111,7.258 C4.021,7.302 1.018,6.709 1.018,3.943 C1.018,1.177 3.914,-0.008 4.957,-0.008 C6.004,-0.008 9.160,-0.008 10.162,-0.008 C10.162,-0.008 9.924,0.191 9.379,0.497 C8.834,0.804 7.810,0.652 7.810,0.652 ZM1.844,12.372 C1.844,13.975 2.998,15.050 5.152,15.050 C7.305,15.050 8.572,14.326 8.572,12.833 C8.572,11.339 7.148,10.593 6.352,9.978 C3.412,9.978 1.844,10.768 1.844,12.372 ZM4.740,0.520 C1.691,0.520 2.867,6.577 5.459,6.577 C8.898,6.577 7.113,0.431 4.740,0.520 Z"/>
	</symbol>
	<symbol id="twitter" viewBox="0 0 16 14">
		<path d="M16.000,1.682 C15.730,1.843 14.922,2.162 14.168,2.242 C14.651,1.961 15.367,1.042 15.544,0.311 C15.079,0.631 14.012,1.096 13.484,1.096 C13.484,1.096 13.484,1.098 13.485,1.099 C12.884,0.422 12.038,-0.000 11.099,-0.000 C9.276,-0.000 7.798,1.591 7.798,3.554 C7.798,3.827 7.828,4.092 7.883,4.346 C7.883,4.346 7.882,4.346 7.882,4.346 C5.409,4.278 2.519,2.944 0.890,0.659 C-0.110,2.525 0.755,4.599 1.891,5.354 C1.503,5.388 0.786,5.307 0.449,4.955 C0.426,6.192 0.979,7.833 2.995,8.427 C2.606,8.653 1.921,8.589 1.621,8.540 C1.727,9.586 3.086,10.953 4.571,10.953 C4.042,11.611 2.235,12.809 -0.000,12.428 C1.519,13.423 3.289,14.000 5.163,14.000 C10.488,14.000 14.624,9.352 14.401,3.619 C14.401,3.612 14.399,3.605 14.399,3.600 C14.399,3.584 14.401,3.568 14.401,3.554 C14.401,3.537 14.399,3.520 14.399,3.501 C14.884,3.146 15.534,2.514 16.000,1.682 Z"/>
	</symbol>
	<symbol id="vk" viewBox="0 0 17 10">
		<path d="M13.813,9.999 C13.787,9.999 13.760,9.999 13.734,9.999 C12.871,9.854 12.284,9.231 11.783,8.653 C11.500,8.327 11.067,7.589 10.549,7.674 C9.814,7.795 10.179,9.081 9.872,9.632 C9.625,10.077 8.569,9.997 7.842,9.918 C5.546,9.668 4.373,8.412 3.344,7.062 C2.245,5.620 1.389,4.110 0.597,2.453 C0.341,1.916 0.000,1.323 0.000,0.658 C0.372,0.347 0.979,0.454 1.592,0.454 C2.112,0.454 2.924,0.338 3.304,0.536 C3.530,0.654 3.758,1.279 3.941,1.678 C4.360,2.594 4.746,3.253 5.255,4.003 C5.475,4.328 5.813,4.941 6.210,4.860 C6.595,4.780 6.631,3.809 6.648,3.187 C6.667,2.481 6.647,1.604 6.449,1.229 C6.262,0.876 5.919,0.869 5.573,0.658 C5.861,0.064 6.651,0.005 7.603,0.005 C8.404,0.005 9.521,-0.086 9.833,0.454 C10.150,1.004 9.932,1.995 9.912,2.739 C9.890,3.573 9.749,4.435 10.310,4.819 C10.743,4.771 10.975,4.340 11.226,4.003 C11.775,3.266 12.115,2.627 12.540,1.678 C12.714,1.288 12.901,0.617 13.216,0.495 C13.697,0.309 14.463,0.454 15.167,0.454 C15.743,0.454 16.773,0.291 16.958,0.699 C17.112,1.037 16.660,1.892 16.520,2.127 C15.988,3.023 15.464,3.593 14.888,4.370 C14.658,4.681 14.184,5.179 14.212,5.675 C14.233,6.053 14.603,6.342 14.888,6.614 C15.507,7.201 15.940,7.630 16.441,8.286 C16.630,8.533 17.037,9.068 16.998,9.388 C16.877,10.384 14.586,9.759 13.813,9.999 Z"/>
	</symbol>

	<view id="facebook-view" viewBox="0 0 8 16" />
	<view id="facebook-view-hover" viewBox="100 0 8 16" />
	<view id="google-view" viewBox="0 100 16 16" />
	<view id="google-view-hover" viewBox="100 100 16 16" />

	<use xlink:href="#facebook" width="8" height="16" x="0" y="0" fill="red" />
	<use xlink:href="#facebook" width="8" height="16" x="100" y="0" fill="blue" />
	<use xlink:href="#google" width="16" height="16" x="0" y="100" fill="red" />
	<use xlink:href="#google" width="16" height="16" x="100" y="100" fill="blue" />
</svg>