<svg xmlns="http://www.w3.org/2000/svg" xmlns:xlink="http://www.w3.org/1999/xlink">
	<symbol id="facebook" viewBox="0 0 8 16">
		<path d="M7.797,5.551 C7.797,5.551 5.014,5.551 5.014,5.551 C5.014,5.551 5.014,3.519 5.014,3.519 C5.014,2.896 5.658,2.752 5.959,2.752 C6.258,2.752 7.757,2.752 7.757,2.752 C7.757,2.752 7.757,0.010 7.757,0.010 C7.757,0.010 5.696,0.000 5.696,0.000 C2.885,0.000 2.243,2.044 2.243,3.354 C2.243,3.354 2.243,5.551 2.243,5.551 C2.243,5.551 0.203,5.551 0.203,5.551 C0.203,5.551 0.203,8.375 0.203,8.375 C0.203,8.375 2.243,8.375 2.243,8.375 C2.243,12.001 2.243,16.000 2.243,16.000 C2.243,16.000 5.014,16.000 5.014,16.000 C5.014,16.000 5.014,11.960 5.014,8.375 C5.014,8.375 7.367,8.375 7.367,8.375 C7.367,8.375 7.797,5.551 7.797,5.551 Z"/>
	</symbol>

	<use xlink:href="#facebook" width="8" height="16" x="0" y="0"/>
</svg>
